<svg width="26" height="27" viewBox="0 0 26 27" fill="none" xmlns="http://www.w3.org/2000/svg">
<path fill-rule="evenodd" clip-rule="evenodd" d="M0.448867 1.19885C0.839391 0.808329 1.47256 0.808329 1.86308 1.19885L25.5512 24.8869C25.9417 25.2775 25.9417 25.9106 25.5512 26.3011C25.1606 26.6917 24.5275 26.6917 24.1369 26.3011L0.448867 2.61307C0.0583427 2.22254 0.0583427 1.58938 0.448867 1.19885Z" fill="#CBCACA"/>
<path fill-rule="evenodd" clip-rule="evenodd" d="M0.292893 26.3952C-0.0976311 26.0047 -0.0976311 25.3715 0.292893 24.981L23.981 1.2929C24.3715 0.902374 25.0047 0.902374 25.3952 1.2929C25.7857 1.68342 25.7857 2.31659 25.3952 2.70711L1.70711 26.3952C1.31658 26.7857 0.683418 26.7857 0.292893 26.3952Z" fill="#CBCACA"/>
</svg>
