<?xml version="1.0" encoding="utf-8"?>
<!-- Generator: Adobe Illustrator 25.3.1, SVG Export Plug-In . SVG Version: 6.00 Build 0)  -->
<svg version="1.1" id="Layer_1" xmlns="http://www.w3.org/2000/svg" xmlns:xlink="http://www.w3.org/1999/xlink" x="0px" y="0px"
	 viewBox="0 0 36.9 36.9" style="enable-background:new 0 0 36.9 36.9;" xml:space="preserve">
<path d="M36.8,9.2c0,1.3-0.5,2.3-1.3,3.2c-6.1,6.1-12.3,12.3-18.4,18.4c-1.8,1.8-4.7,1.8-6.5,0c-3.1-3-6.2-6.1-9.2-9.2
	c-1.8-1.8-1.8-4.7,0-6.5c1.8-1.8,4.7-1.8,6.5,0c1.8,1.8,3.6,3.6,5.4,5.4c0.4,0.4,0.6,0.4,1,0c4.8-4.9,9.7-9.7,14.5-14.5
	c2.5-2.5,6.6-1.6,7.7,1.6C36.8,8.2,36.9,8.7,36.8,9.2z"/>
</svg>
